<svg xmlns="http://www.w3.org/2000/svg" version="1.1" xmlns:xlink="http://www.w3.org/1999/xlink" width="2000" height="116" viewBox="0 0 2000 116"><svg xml:space="preserve" width="2000" height="116" data-version="2" data-id="lg_cEjw6omNys1AhZMK6W" viewBox="0 0 556 116" x="0" y="0"><rect width="100%" height="100%" fill="transparent"></rect><path fill="#000000" d="M64.15 89.71V71.93q0-3.22-2.38-6.23-2.38-3.01-8.4-3.43-3.92 4.76-9.52 4.76-4.76 0-8.12-3.36-3.36-3.36-3.36-8.26t3.36-8.26q3.36-3.36 8.12-3.36 2.52 0 4.97 1.4 2.45 1.4 4.41 3.36 3.08-.14 4.76-.98 1.68-.84 2.45-2.03.77-1.19.91-2.73t.14-3.08V25.59q0-3.5-2.17-6.44-2.17-2.94-7.35-2.94H22.71l-.14 92.4q0 2.8-2.59 4.27-2.59 1.47-5.67 1.47-8.26 0-8.26-6.72V10.47q0-5.04 2.59-6.72 2.59-1.68 6.23-1.68h40.6q3.64 0 7.77 1.4 4.13 1.4 7.77 3.78h-.14q3.64 2.66 5.39 7 1.75 4.34 1.75 10.08v15.82q0 5.6-2.38 9.17-2.38 3.57-5.04 5.67 1.82 1.12 3.5 2.31t2.8 2.59q1.82 1.96 2.87 4.62t1.05 6.3v20.02q0 11.48-8.96 16.94-4.48 2.8-8.47 4.2-3.99 1.4-7.91 1.4H34.75q-2.38 0-3.71-1.96t-1.33-5.18q0-7 5.88-7h19.18q5.18 0 7.28-2.94 2.1-2.94 2.1-6.58m105.28 20.16-30.8-94.08-30.66 94.08v-.14q-.84 2.1-2.31 3.43-1.47 1.33-3.57 1.33-1.12 0-2.17-.21-1.05-.21-2.17-.49h.14q-7.98-2.52-5.88-8.96l31.92-97.02q.7-2.24 2.45-3.78 1.75-1.54 4.13-1.82 2.38-.42 4.62-.63 2.24-.21 3.5-.21 1.26 0 3.5.21t4.62.49q1.96.28 3.85 2.1 1.89 1.82 2.87 3.64 7.84 24.08 15.89 48.51t15.89 48.51q1.96 6.44-5.88 8.96-1.12.28-2.03.49-.91.21-2.03.21-1.96 0-3.57-1.33-1.61-1.33-2.31-3.43zm-20.3-30.24q0 4.48-3.15 7.63-3.15 3.15-7.63 3.15t-7.56-3.15q-3.08-3.15-3.08-7.63t3.08-7.63q3.08-3.15 7.56-3.15 4.48 0 7.63 3.15 3.15 3.15 3.15 7.63m114.8 31.92-26.46-44.38h-10.78q-2.38 0-3.71-1.89t-1.33-5.11q0-7.14 5.88-7.14h16.38q5.18 0 7.28-2.94 2.1-2.94 2.1-6.44V25.59q0-3.5-2.1-6.44-2.1-2.94-7.28-2.94h-29.54v91.28q0 6.72-8.26 6.72t-8.26-6.72V10.47q0-5.04 2.59-6.72 2.59-1.68 6.23-1.68h40.74q3.64 0 7.56 1.54 3.92 1.54 7.56 3.92h-.14q3.64 2.66 5.6 6.93 1.96 4.27 1.96 9.87v20.44q0 11.34-7.56 16.94-1.54 1.12-3.29 2.1t-3.57 1.96l22.4 36.96q.42.7.84 1.82t.42 1.82q0 3.36-4.76 6.44v-.14q-3.22 1.96-5.46 1.96-3.22 0-5.18-3.22zm86.38-21.84V71.93q0-3.22-2.38-6.23-2.38-3.01-8.4-3.43-3.92 4.76-9.52 4.76-4.76 0-8.12-3.36-3.36-3.36-3.36-8.26t3.36-8.26q3.36-3.36 8.12-3.36 2.52 0 4.97 1.4 2.45 1.4 4.41 3.36 3.08-.14 4.76-.98 1.68-.84 2.45-2.03.77-1.19.91-2.73t.14-3.08V25.59q0-3.5-2.17-6.44-2.17-2.94-7.35-2.94h-29.26l-.14 92.4q0 2.8-2.59 4.27-2.59 1.47-5.67 1.47-8.26 0-8.26-6.72V10.47q0-5.04 2.59-6.72 2.59-1.68 6.23-1.68h40.6q3.64 0 7.77 1.4 4.13 1.4 7.77 3.78h-.14q3.64 2.66 5.39 7 1.75 4.34 1.75 10.08v15.82q0 5.6-2.38 9.17-2.38 3.57-5.04 5.67 1.82 1.12 3.5 2.31t2.8 2.59q1.82 1.96 2.87 4.62t1.05 6.3v20.02q0 11.48-8.96 16.94-4.48 2.8-8.47 4.2-3.99 1.4-7.91 1.4h-20.72q-2.38 0-3.71-1.96t-1.33-5.18q0-7 5.88-7h19.18q5.18 0 7.28-2.94 2.1-2.94 2.1-6.58m97.86 23.66h-51.24q-5.18 0-7-2.66-1.82-2.66-1.82-5.88V10.47q0-3.22 1.82-5.81 1.82-2.59 7-2.59h48.72q5.18 0 5.46 7 .28 7.14-5.46 7.14h-41.02v83.02h43.54q5.18 0 5.32 6.86.28 7.28-5.32 7.28m-7.7-57.96q0 4.9-3.43 8.26-3.43 3.36-8.33 3.36-4.76 0-8.12-3.36-3.36-3.36-3.36-8.26t3.36-8.26q3.36-3.36 8.12-3.36 4.9 0 8.33 3.36 3.43 3.36 3.43 8.26m94.22 56.14-26.46-44.38h-10.78q-2.38 0-3.71-1.89t-1.33-5.11q0-7.14 5.88-7.14h16.38q5.18 0 7.28-2.94 2.1-2.94 2.1-6.44V25.59q0-3.5-2.1-6.44-2.1-2.94-7.28-2.94h-29.54v91.28q0 6.72-8.26 6.72t-8.26-6.72V10.47q0-5.04 2.59-6.72 2.59-1.68 6.23-1.68h40.74q3.64 0 7.56 1.54 3.92 1.54 7.56 3.92h-.14q3.64 2.66 5.6 6.93 1.96 4.27 1.96 9.87v20.44q0 11.34-7.56 16.94-1.54 1.12-3.29 2.1t-3.57 1.96l22.4 36.96q.42.7.84 1.82t.42 1.82q0 3.36-4.76 6.44v-.14q-3.22 1.96-5.46 1.96-3.22 0-5.18-3.22z"></path></svg></svg>