<svg width="250" height="90" viewBox="0 0 167 90" fill="none" xmlns="http://www.w3.org/2000/svg">
<g clip-path="url(#clip0_55_14)">
<path d="M19.2681 51.8439V48.0065C19.2681 47.5432 19.0298 47.095 18.5532 46.6619C18.0767 46.2288 17.2357 45.982 16.0302 45.9216C15.2453 46.6065 14.2921 46.9489 13.1708 46.9489C12.2177 46.9489 11.4047 46.7072 10.7319 46.2238C10.0591 45.7403 9.72267 45.1461 9.72267 44.441C9.72267 43.736 10.0591 43.1417 10.7319 42.6583C11.4047 42.1748 12.2177 41.9331 13.1708 41.9331C13.6754 41.9331 14.173 42.0338 14.6636 42.2353C15.1542 42.4367 15.5957 42.6784 15.9882 42.9604C16.6049 42.9403 17.0815 42.8698 17.4179 42.7489C17.7543 42.6281 17.9996 42.482 18.1538 42.3108C18.3079 42.1396 18.3991 41.9432 18.4271 41.7216C18.4551 41.5 18.4691 41.2784 18.4691 41.0568V38.005C18.4691 37.5015 18.2519 37.0381 17.8174 36.6151C17.3828 36.1921 16.647 35.9806 15.6097 35.9806H6.82119L6.77914 55.923C6.77914 56.3259 6.51983 56.6331 6.00121 56.8446C5.48259 57.0561 4.91491 57.1619 4.29817 57.1619C2.64419 57.1619 1.8172 56.6784 1.8172 55.7115V34.7417C1.8172 34.0166 2.07651 33.5331 2.59513 33.2914C3.11375 33.0497 3.7375 32.9288 4.46637 32.9288H16.661C17.3898 32.9288 18.1678 33.0295 18.9948 33.2309C19.8218 33.4324 20.5997 33.7043 21.3286 34.0468H21.2865C22.0154 34.4295 22.555 34.9331 22.9055 35.5576C23.2559 36.182 23.4311 36.9072 23.4311 37.7331V41.1475C23.4311 41.9532 23.1928 42.613 22.7162 43.1266C22.2397 43.6403 21.7351 44.0482 21.2024 44.3504C21.5668 44.5115 21.9173 44.6777 22.2537 44.8489C22.5901 45.0202 22.8704 45.2065 23.0947 45.4079C23.4591 45.6899 23.7465 46.0223 23.9567 46.405C24.167 46.7878 24.2721 47.241 24.2721 47.7648V52.0856C24.2721 53.7374 23.375 54.9561 21.5809 55.7417C20.6838 56.1446 19.8358 56.4468 19.0368 56.6482C18.2379 56.8496 17.4459 56.9504 16.661 56.9504H10.4375C9.96095 56.9504 9.58951 56.8094 9.32319 56.5273C9.05687 56.2453 8.92371 55.8727 8.92371 55.4094C8.92371 54.4022 9.51242 53.8986 10.6898 53.8986H16.4507C17.488 53.8986 18.2168 53.6871 18.6373 53.264C19.0578 52.841 19.2681 52.3676 19.2681 51.8439ZM50.89 56.195L41.6389 35.8899L32.4299 56.195V56.1648C32.2617 56.4669 32.0304 56.7137 31.736 56.905C31.4417 57.0964 31.0842 57.1921 30.6637 57.1921C30.4395 57.1921 30.2222 57.177 30.012 57.1468C29.8017 57.1166 29.5845 57.0813 29.3602 57.041H29.4022C27.8043 56.6784 27.2156 56.0338 27.6361 55.1072L37.2236 34.1676C37.3638 33.8453 37.6091 33.5734 37.9595 33.3518C38.3099 33.1302 38.7234 32.9993 39.2 32.959C39.6765 32.8986 40.1391 32.8532 40.5876 32.823C41.0362 32.7928 41.3866 32.7777 41.6389 32.7777C41.8912 32.7777 42.2416 32.7928 42.6901 32.823C43.1387 32.8532 43.6012 32.8885 44.0778 32.9288C44.4703 32.9691 44.8557 33.1202 45.2342 33.382C45.6126 33.6439 45.9 33.9058 46.0962 34.1676C47.6661 37.6324 49.257 41.1223 50.8689 44.6374C52.4809 48.1525 54.0718 51.6425 55.6417 55.1072C56.0341 56.0338 55.4454 56.6784 53.8755 57.041C53.6513 57.0813 53.448 57.1166 53.2658 57.1468C53.0836 57.177 52.8803 57.1921 52.6561 57.1921C52.2636 57.1921 51.9062 57.0964 51.5838 56.905C51.2614 56.7137 51.0301 56.4669 50.89 56.1648V56.195ZM44.7927 49.6684C44.7927 50.313 44.4773 50.8619 43.8465 51.3151C43.2158 51.7684 42.4519 51.995 41.5548 51.995C40.6577 51.995 39.9008 51.7684 39.2841 51.3151C38.6673 50.8619 38.359 50.313 38.359 49.6684C38.359 49.0238 38.6673 48.4748 39.2841 48.0216C39.9008 47.5684 40.6577 47.3417 41.5548 47.3417C42.4519 47.3417 43.2158 47.5684 43.8465 48.0216C44.4773 48.4748 44.7927 49.0238 44.7927 49.6684ZM79.274 56.5576L71.3264 46.9791H68.0886C67.612 46.9791 67.2405 46.8432 66.9742 46.5712C66.7079 46.2993 66.5747 45.9317 66.5747 45.4684C66.5747 44.441 67.1635 43.9273 68.3409 43.9273H73.2608C74.298 43.9273 75.0269 43.7158 75.4474 43.2928C75.8679 42.8698 76.0781 42.4065 76.0781 41.9029V38.005C76.0781 37.5015 75.8679 37.0381 75.4474 36.6151C75.0269 36.1921 74.298 35.9806 73.2608 35.9806H64.3881V55.6813C64.3881 56.6482 63.5611 57.1317 61.9072 57.1317C60.2532 57.1317 59.4262 56.6482 59.4262 55.6813V34.7417C59.4262 34.0166 59.6855 33.5331 60.2041 33.2914C60.7227 33.0497 61.3465 32.9288 62.0754 32.9288H74.312C75.0409 32.9288 75.7978 33.0396 76.5827 33.2612C77.3677 33.4827 78.1246 33.7648 78.8535 34.1072H78.8114C79.5403 34.4899 80.1009 34.9885 80.4934 35.6029C80.8859 36.2173 81.0821 36.9273 81.0821 37.7331V42.1446C81.0821 43.7763 80.3252 44.995 78.8114 45.8007C78.503 45.9619 78.1736 46.113 77.8232 46.254C77.4728 46.395 77.1154 46.536 76.7509 46.677L83.479 54.654C83.5631 54.7547 83.6472 54.8856 83.7313 55.0468C83.8154 55.2079 83.8575 55.3389 83.8575 55.4396C83.8575 55.923 83.3809 56.3863 82.4277 56.8295V56.7993C81.783 57.0813 81.2363 57.2223 80.7878 57.2223C80.143 57.2223 79.6244 56.9907 79.2319 56.5273L79.274 56.5576ZM105.219 51.8439V48.0065C105.219 47.5432 104.981 47.095 104.504 46.6619C104.028 46.2288 103.187 45.982 101.981 45.9216C101.196 46.6065 100.243 46.9489 99.1217 46.9489C98.1686 46.9489 97.3556 46.7072 96.6828 46.2238C96.01 45.7403 95.6736 45.1461 95.6736 44.441C95.6736 43.736 96.01 43.1417 96.6828 42.6583C97.3556 42.1748 98.1686 41.9331 99.1217 41.9331C99.6263 41.9331 100.124 42.0338 100.615 42.2353C101.105 42.4367 101.547 42.6784 101.939 42.9604C102.556 42.9403 103.032 42.8698 103.369 42.7489C103.705 42.6281 103.951 42.482 104.105 42.3108C104.259 42.1396 104.35 41.9432 104.378 41.7216C104.406 41.5 104.42 41.2784 104.42 41.0568V38.005C104.42 37.5015 104.203 37.0381 103.768 36.6151C103.334 36.1921 102.598 35.9806 101.561 35.9806H92.7721L92.7301 55.923C92.7301 56.3259 92.4708 56.6331 91.9521 56.8446C91.4335 57.0561 90.8658 57.1619 90.2491 57.1619C88.5951 57.1619 87.7681 56.6784 87.7681 55.7115V34.7417C87.7681 34.0166 88.0274 33.5331 88.5461 33.2914C89.0647 33.0497 89.6884 32.9288 90.4173 32.9288H102.612C103.341 32.9288 104.119 33.0295 104.946 33.2309C105.773 33.4324 106.551 33.7043 107.28 34.0468H107.237C107.966 34.4295 108.506 34.9331 108.856 35.5576C109.207 36.182 109.382 36.9072 109.382 37.7331V41.1475C109.382 41.9532 109.144 42.613 108.667 43.1266C108.191 43.6403 107.686 44.0482 107.153 44.3504C107.518 44.5115 107.868 44.6777 108.205 44.8489C108.541 45.0202 108.821 45.2065 109.046 45.4079C109.41 45.6899 109.697 46.0223 109.908 46.405C110.118 46.7878 110.223 47.241 110.223 47.7648V52.0856C110.223 53.7374 109.326 54.9561 107.532 55.7417C106.635 56.1446 105.787 56.4468 104.988 56.6482C104.189 56.8496 103.397 56.9504 102.612 56.9504H96.3885C95.9119 56.9504 95.5404 56.8094 95.2741 56.5273C95.0078 56.2453 94.8746 55.8727 94.8746 55.4094C94.8746 54.4022 95.4633 53.8986 96.6408 53.8986H102.402C103.439 53.8986 104.168 53.6871 104.588 53.264C105.009 52.841 105.219 52.3676 105.219 51.8439ZM134.612 56.9504H119.222C118.185 56.9504 117.484 56.759 117.119 56.3763C116.755 55.9935 116.573 55.5705 116.573 55.1072V34.7417C116.573 34.2784 116.755 33.8604 117.119 33.4878C117.484 33.1151 118.185 32.9288 119.222 32.9288H133.855C134.893 32.9288 135.439 33.4324 135.495 34.4396C135.551 35.4669 135.005 35.9806 133.855 35.9806H121.535V53.8986H134.612C135.649 53.8986 136.182 54.3921 136.21 55.3791C136.266 56.4266 135.734 56.9504 134.612 56.9504ZM132.299 44.441C132.299 45.1461 131.956 45.7403 131.269 46.2238C130.582 46.7072 129.748 46.9489 128.767 46.9489C127.814 46.9489 127.001 46.7072 126.328 46.2238C125.656 45.7403 125.319 45.1461 125.319 44.441C125.319 43.736 125.656 43.1417 126.328 42.6583C127.001 42.1748 127.814 41.9331 128.767 41.9331C129.748 41.9331 130.582 42.1748 131.269 42.6583C131.956 43.1417 132.299 43.736 132.299 44.441ZM160.599 56.5576L152.652 46.9791H149.414C148.937 46.9791 148.566 46.8432 148.3 46.5712C148.033 46.2993 147.9 45.9317 147.9 45.4684C147.9 44.441 148.489 43.9273 149.666 43.9273H154.586C155.623 43.9273 156.352 43.7158 156.773 43.2928C157.193 42.8698 157.404 42.4065 157.404 41.9029V38.005C157.404 37.5015 157.193 37.0381 156.773 36.6151C156.352 36.1921 155.623 35.9806 154.586 35.9806H145.714V55.6813C145.714 56.6482 144.887 57.1317 143.233 57.1317C141.579 57.1317 140.752 56.6482 140.752 55.6813V34.7417C140.752 34.0166 141.011 33.5331 141.53 33.2914C142.048 33.0497 142.672 32.9288 143.401 32.9288H155.637C156.366 32.9288 157.123 33.0396 157.908 33.2612C158.693 33.4827 159.45 33.7648 160.179 34.1072H160.137C160.866 34.4899 161.426 34.9885 161.819 35.6029C162.211 36.2173 162.408 36.9273 162.408 37.7331V42.1446C162.408 43.7763 161.651 44.995 160.137 45.8007C159.828 45.9619 159.499 46.113 159.149 46.254C158.798 46.395 158.441 46.536 158.076 46.677L164.804 54.654C164.888 54.7547 164.973 54.8856 165.057 55.0468C165.141 55.2079 165.183 55.3389 165.183 55.4396C165.183 55.923 164.706 56.3863 163.753 56.8295V56.7993C163.108 57.0813 162.562 57.2223 162.113 57.2223C161.468 57.2223 160.95 56.9907 160.557 56.5273L160.599 56.5576Z" fill="white"/>
</g>
<defs>
<clipPath id="clip0_55_14">
<rect width="167" height="90" fill="white"/>
</clipPath>
</defs>
</svg>
